<?xml version="1.0" encoding="utf-8"?><svg xmlns="http://www.w3.org/2000/svg" xmlns:xlink="http://www.w3.org/1999/xlink"><symbol viewBox="0 0 18 18" id="ball" xmlns="http://www.w3.org/2000/svg"><g clip-path="url(#aclip0)"><path fill-rule="evenodd" clip-rule="evenodd" d="M17.982 8.584a8.916 8.916 0 0 0-.683-3.147 9.67 9.67 0 0 0-.84-1.503 9.843 9.843 0 0 0-1.101-1.316 9.54 9.54 0 0 0-1.336-1.073 9.284 9.284 0 0 0-1.523-.83 8.512 8.512 0 0 0-1.671-.529 8.955 8.955 0 0 0-3.631 0 8.44 8.44 0 0 0-1.693.53c-.536.22-1.05.489-1.534.804a9.692 9.692 0 0 0-1.328 1.073A8.417 8.417 0 0 0 1.559 3.91 7.697 7.697 0 0 0 .72 5.444c-.24.537-.42 1.1-.534 1.677-.1.45-.155.91-.166 1.37-.02.15-.026.3-.021.45a8.547 8.547 0 0 0 .187 1.79c.116.569.295 1.124.534 1.655.217.536.493 1.046.823 1.52.318.47.68.91 1.083 1.313.407.41.858.775 1.343 1.09.485.318.998.59 1.534.813a8.45 8.45 0 0 0 3.49.715 8.454 8.454 0 0 0 3.505-.715 9.516 9.516 0 0 0 1.523-.812 8.043 8.043 0 0 0 1.335-1.091c.403-.407.77-.846 1.101-1.313.326-.48.607-.99.841-1.52a8.936 8.936 0 0 0 .513-1.677A9.063 9.063 0 0 0 18 8.92c.01-.11.01-.222 0-.332l-.018-.004zM8.994 1.305a7.715 7.715 0 0 1 5.082 1.893c-.021.028-1.119 1.677-4.006 2.754A36.93 36.93 0 0 0 7.182 1.52a7.9 7.9 0 0 1 1.805-.215h.007zm-1.83.215a.044.044 0 0 1-.029 0h.03zm-1.444.512a43.67 43.67 0 0 1 2.852 4.406 28.727 28.727 0 0 1-7.089.909 7.58 7.58 0 0 1 1.484-3.149A7.67 7.67 0 0 1 5.71 2.032h.01zm-2.436 11.97a7.498 7.498 0 0 1-1.967-5.06v-.243a28.59 28.59 0 0 0 7.89-1.091c.217.422.426.865.62 1.305a.861.861 0 0 0-.306.09c-4.154 1.312-6.244 5.007-6.244 5.007l.007-.007zm5.71 2.533a7.663 7.663 0 0 1-4.717-1.62c.018-.029 1.501-3.198 6.035-4.757h.05a30.936 30.936 0 0 1 1.632 5.776c-.95.4-1.97.606-3 .608v-.007zm4.295-1.305c-.34-1.85-.84-3.668-1.494-5.433a11.386 11.386 0 0 1 4.808.325 7.596 7.596 0 0 1-1.12 2.893 7.67 7.67 0 0 1-2.187 2.215h-.007zM11.34 8.584a2.557 2.557 0 0 1-.166-.393c-.13-.276-.249-.53-.36-.805a5.026 5.026 0 0 0-.16-.304c3.04-1.223 4.267-2.98 4.296-3.008a7.585 7.585 0 0 1 1.707 4.152c0 .197.029.394.029.608a17.564 17.564 0 0 0-5.346-.25z"/></g><defs><clipPath id="aclip0"><path d="M0 0h18v17.819H0z"/></clipPath></defs></symbol><symbol viewBox="0 0 26 16" id="be" xmlns="http://www.w3.org/2000/svg"><g clip-path="url(#bclip0)"><path d="M3.26 8.359h-.35v4.664h5.234c.587 0 1.08-.336 1.412-.757.332-.422.54-.975.54-1.502 0-.968-.459-1.59-1.053-1.953-.573-.35-1.255-.452-1.743-.452H3.26zm19.315.7h.386l-.038-.385a2.943 2.943 0 0 0-.983-1.912 3.07 3.07 0 0 0-2.034-.767 3.07 3.07 0 0 0-2.035.767 2.943 2.943 0 0 0-.982 1.912l-.039.385h5.725zm-5.518.873h-.379l.03.377c.149 1.894 1.445 3.503 3.21 3.503.844 0 1.526-.276 2.036-.767.44-.424.73-.989.898-1.624h2.585c-.29 1.128-.81 2.09-1.606 2.793-.888.785-2.153 1.275-3.913 1.275h-.012a5.675 5.675 0 0 1-2.226-.373 5.557 5.557 0 0 1-1.887-1.207 5.387 5.387 0 0 1-1.235-1.837 5.27 5.27 0 0 1-.382-2.163v-.024a5.28 5.28 0 0 1 .385-2.16 5.398 5.398 0 0 1 1.235-1.836 5.568 5.568 0 0 1 1.886-1.208 5.685 5.685 0 0 1 2.225-.376h.021a5.694 5.694 0 0 1 2.22.382 5.577 5.577 0 0 1 1.882 1.208 5.406 5.406 0 0 1 1.234 1.834c.278.686.41 1.42.386 2.157v.046h-8.593zm-8.914 5.557H.35V.35h7.793c.98.005 1.915.386 2.606 1.059a3.562 3.562 0 0 1 1.085 2.528c0 .62-.16 1.23-.467 1.774a3.712 3.712 0 0 1-1.294 1.336l-.64.392.712.238a3.738 3.738 0 0 1 1.819 1.312c.45.608.698 1.336.708 2.084a4.37 4.37 0 0 1-1.325 3.113c-.848.829-2 1.298-3.204 1.303zM2.911 6.356v.35H7.3a2.01 2.01 0 0 0 1.405-.569c.375-.365.587-.863.587-1.383S9.08 3.736 8.705 3.37A2.014 2.014 0 0 0 7.3 2.801H2.91v3.555zM16.618 1.14h6.58v1.662h-6.58V1.14z"/></g><defs><clipPath id="bclip0"><path d="M0 0h26v15.839H0z"/></clipPath></defs></symbol><symbol viewBox="0 0 18 19" id="insta" xmlns="http://www.w3.org/2000/svg"><g clip-path="url(#cclip0)"><path fill-rule="evenodd" clip-rule="evenodd" d="M4.405 9.005a4.597 4.597 0 1 1 9.194.014 4.597 4.597 0 0 1-9.194-.014zM13.747.01h-9.49A4.263 4.263 0 0 0 0 4.266v9.492a4.27 4.27 0 0 0 4.256 4.252h9.491A4.264 4.264 0 0 0 18 13.758V4.266A4.256 4.256 0 0 0 13.747.01zm-9.49 1.062h9.49a3.198 3.198 0 0 1 3.19 3.194v9.492a3.194 3.194 0 0 1-3.19 3.19h-9.49a3.198 3.198 0 0 1-3.195-3.19V4.266a3.198 3.198 0 0 1 3.194-3.194zM14.69 2.417a.936.936 0 1 0 0 1.872.936.936 0 0 0 0-1.871zm.112 6.588a5.8 5.8 0 1 0-11.6 0 5.8 5.8 0 0 0 11.6 0z"/></g><defs><clipPath id="cclip0"><path transform="translate(0 .01)" d="M0 0h18v18H0z"/></clipPath></defs></symbol><symbol viewBox="0 0 17 22" id="p" xmlns="http://www.w3.org/2000/svg"><path d="M.4 7.538A6.109 6.109 0 0 0 .619 9.24l.002.009.002.009a3.58 3.58 0 0 0 .75 1.514c.367.438.836.785 1.366 1.01l.02.008.02.011a.024.024 0 0 0 .022 0 .02.02 0 0 0 .006-.005.014.014 0 0 0 .003-.006l.005-.031.01-.03c.03-.093.077-.265.127-.456l.024-.092c.04-.153.08-.307.11-.409l.008-.026.01-.025a.157.157 0 0 0-.05-.192l-.03-.024-.026-.03a3.666 3.666 0 0 1-.774-1.4l-.001-.004a4.469 4.469 0 0 1-.166-1.225M.4 7.537l2.055.311M.4 7.538v-.006C.4 4.328 3.239.4 9 .4c4.642 0 7.6 3.183 7.6 6.495v.003a10.37 10.37 0 0 1-.267 2.404c-.763 3.302-3.077 5.487-6.13 5.487-.621 0-1.225-.16-1.717-.411-.5-.254-.85-.582-1.01-.889l-.474-.91-.267.991.386.104M.401 7.538l16.321 1.854M2.056 7.847l.4.001m-.4 0h.4m-.4 0c0-3.27 2.57-6.188 6.612-6.188 1.76 0 3.175.518 4.154 1.426.981.909 1.488 2.175 1.488 3.596M2.456 7.848c0-3.046 2.387-5.788 6.212-5.788 3.363 0 5.242 1.976 5.242 4.623m.4 0h-.4m.4 0a11.27 11.27 0 0 1-.235 2.316l-.001.005c-.545 2.481-2.012 4.504-4.174 4.504-.762 0-1.454-.302-1.91-.816-.461-.52-.665-1.237-.47-2.011v-.003c.13-.503.3-1.03.466-1.543.075-.23.148-.457.216-.677l.003-.01.004-.01c.232-.63.375-1.288.425-1.956-.003-.426-.121-.773-.324-1.008-.197-.229-.509-.393-.991-.393-1.044 0-2.034 1.075-2.034 2.726a4.144 4.144 0 0 0 .368 1.753l.057.126-.033.134-.388-.095.388.095v.004l-.004.012-.011.047-.044.18-.158.647-.497 2.031a806.25 806.25 0 0 0-.886 3.655l-.001.004c-.346 1.405-.209 3.052-.103 3.891.168-.217.385-.512.615-.858.48-.721 1.001-1.641 1.26-2.535M14.31 6.682v.001h-.4m0 0L5.848 16.898m10.874-7.506c-.794 3.437-3.236 5.797-6.52 5.797-1.13 0-2.2-.479-2.779-1.097l.052-.194.024-.089.007-.023.001-.006v-.001l-.386-.105m9.601-4.282c.19-.819.283-1.657.278-2.497l-.278 2.497zm-9.6 4.282l-.387-.104v.002l-.002.006-.006.024-.024.089-.087.322-.272 1.016c-.203.756-.424 1.585-.496 1.87m1.273-3.225l-1.273 3.224m0 0l-.001.007.388.098c-.484 1.672-1.804 3.373-2.184 3.833l1.797-3.938zm-2.16-.594c-.46 1.865-.108 4.108-.042 4.526l.008.052c0 .137.206.17.298.07a2.388 2.388 0 0 0 .098-.115l-.363-4.533z"/></symbol><symbol viewBox="0 0 11 10" id="triang" xmlns="http://www.w3.org/2000/svg"><path d="M5.5 10L.737.25h9.526L5.5 10z"/></symbol><symbol viewBox="0 0 31 18" id="vk" xmlns="http://www.w3.org/2000/svg"><path d="M11.087 1.294c.124-.098.275-.189.455-.272.465-.216 1.054-.35 1.656-.428A12.6 12.6 0 0 1 15.33.511l.141.008h.008a8.909 8.909 0 0 1 1.954.715.864.864 0 0 1 .105.27c.074.28.134.75.135 1.512-.008.247-.018.506-.029.772-.039 1-.081 2.093-.032 2.992.031.568.1 1.11.255 1.526.147.398.454.866 1.043.87.388.012.742-.196 1.02-.422.297-.24.597-.57.889-.946.585-.753 1.193-1.753 1.733-2.75l.002-.003c.318-.595.614-1.193.874-1.718.124-.25.24-.484.346-.693.168-.33.308-.592.423-.777a2.18 2.18 0 0 1 .1-.15 22.226 22.226 0 0 1 3.12-.141h.012c.729 0 1.445 0 2.03.036.291.019.537.045.726.082a1.63 1.63 0 0 1 .259.07l.002.002c.018.015.075.07.046.3-.028.236-.138.554-.33.947-.383.78-1.017 1.703-1.645 2.572l-.004.005c-.24.34-.541.713-.867 1.106l-.218.261c-.257.308-.52.624-.76.93-.31.394-.6.794-.805 1.172-.196.36-.361.782-.313 1.195.031.3.183.584.35.827.174.253.404.516.658.781.321.336.712.705 1.11 1.082.22.209.442.42.657.627.62.602 1.194 1.206 1.59 1.786.405.592.562 1.071.498 1.45l-.001.008c-.015.097-.055.16-.159.222-.125.077-.33.14-.636.18-.415.055-.887.056-1.402.058-.263 0-.538.001-.822.01h-.028a9.942 9.942 0 0 1-3.281-.276 1.85 1.85 0 0 1-.326-.213 7.946 7.946 0 0 1-.552-.478 38.974 38.974 0 0 1-1.154-1.147l-.181-.185c-.457-.465-.92-.931-1.318-1.273a4.252 4.252 0 0 0-.58-.433 1.513 1.513 0 0 0-.303-.14.827.827 0 0 0-.4-.033l-.01.002c-.603.122-.98.526-1.208.98-.221.438-.324.96-.383 1.424-.036.279-.06.59-.082.854-.012.155-.023.293-.034.401-.014.13-.028.226-.042.295a3.224 3.224 0 0 1-.501.09c-.3.034-.655.05-1.023.054a19.35 19.35 0 0 1-1.895-.077c-4.358-.716-6.894-3.551-9.364-7.377l-.002-.002C3.194 7.406 1.973 5.377 1.24 3.886.87 3.136.64 2.55.545 2.143a1.319 1.319 0 0 1-.044-.36 2.73 2.73 0 0 1 .651-.154c.351-.05.781-.077 1.274-.091.695-.02 1.482-.012 2.313-.004.319.003.643.007.972.009a.827.827 0 0 1 .06.064c.1.115.224.294.37.535.291.477.626 1.129.964 1.82.238.49.473.99.692 1.454l.261.554c.276.582.526 1.097.69 1.347.554.869 1.05 1.42 1.508 1.714.486.313.971.357 1.389.131.365-.197.58-.553.698-.811.123-.268.187-.527.205-.648l.002-.013.002-.012c.15-1.548.17-2.712.092-3.591-.077-.875-.251-1.501-.514-1.947a1.807 1.807 0 0 0-1.043-.846zm-5.417.214s.002 0 .004.003a.029.029 0 0 1-.004-.003zm18.678.15l-.005.004a.034.034 0 0 1 .005-.005z"/></symbol></svg>